<?xml version="1.0" encoding="UTF-8"?>
<!DOCTYPE svg PUBLIC "-//W3C//DTD SVG 1.1//EN" "http://www.w3.org/Graphics/SVG/1.1/DTD/svg11.dtd">
<!-- Creator: CorelDRAW 2017 -->
<svg xmlns="http://www.w3.org/2000/svg" xml:space="preserve" width="150mm" height="150mm" version="1.1" style="shape-rendering:geometricPrecision; text-rendering:geometricPrecision; image-rendering:optimizeQuality; fill-rule:evenodd; clip-rule:evenodd"
viewBox="0 0 15000 15000"
 xmlns:xlink="http://www.w3.org/1999/xlink">
 <defs>
  <style type="text/css">
   <![CDATA[
    .str1 {stroke:#FEFEFE;stroke-width:20;stroke-miterlimit:22.9256}
    .str2 {stroke:#2B2A29;stroke-width:20;stroke-miterlimit:22.9256}
    .str3 {stroke:#2B2A29;stroke-width:7.62;stroke-miterlimit:22.9256}
    .str0 {stroke:black;stroke-width:7.62;stroke-miterlimit:22.9256}
    .fil4 {fill:#FEFEFE}
    .fil2 {fill:#2B2A29}
    .fil3 {fill:#FCFCFE}
    .fil1 {fill:#2B2A29;fill-rule:nonzero}
    .fil0 {fill:black;fill-rule:nonzero}
   ]]>
  </style>
 </defs>
 <g id="Слой_x0020_1">
  <metadata id="CorelCorpID_0Corel-Layer"/>
  <path class="fil0 str0" d="M5470.9 10820.41c-129.32,-50.11 -282.8,45.32 -399.45,78.93 31.81,99.29 -128.02,80.66 -120.54,146.69 109.68,3.56 145.37,-82.44 251.97,-82.62 -41.97,260.75 0.41,502.01 -49.52,737.93 -6.97,37.16 -34.07,68.97 -41.03,106.12 -4.21,44.3 18.83,91.19 18.04,135.8 0.17,34.4 -17.36,73.99 -21.56,118.29 -41.97,332.95 -79.71,693.81 -29.69,1035.51 30.68,2.92 30.18,-28.07 70.1,-13.97 1.14,24.18 6.34,41.86 26.13,50.62 30.82,-34.89 106.6,-0.19 129.98,43.3 3.24,-34.07 52.08,-5.36 62.3,-4.39 43.64,11.02 160.96,42.81 251.17,34.19 52.08,-5.36 94.42,-52.91 132.55,-56.17 0,0 41.71,31.47 56.96,15.74 36.99,-27.43 89.4,-36.2 157.22,-26.31 147.31,-102.9 253.22,-312.87 314.84,-527.07 23.84,-69.93 65.03,-141.65 72.48,-220.02 10.7,-112.44 -52.1,-211.24 -37.69,-326.77 -38.79,-62.14 -58.6,-143.1 -78.73,-220.66 -92.83,-108.53 -181.28,-226.94 -338.35,-238.44 -27.26,-2.6 -56.13,11.85 -79.98,9.58 -17.35,1.79 -39.92,-14.12 -57.28,-12.31 -163.56,-15.55 -281.16,100.48 -407.55,164.1 -8.31,-238.02 42.09,-515.17 64.28,-784.67 -21.59,-26.12 -16.74,-77.23 -27.12,-112.6 28.88,-14.44 76.25,-6.5 80.47,-50.8zm483.85 1926.68c1.63,55.17 -73.65,123.65 -26.09,165.99 -55.81,80.66 -130.43,142.32 -214.63,196.2 -131.42,8.14 -287.51,-13.57 -395.75,-68.56 28.83,-231.06 -22.96,-517.92 46.6,-779.48 -0.18,-34.4 -45.92,12.82 -36.51,-13.78 -3.1,-75.94 21.71,-228.3 22.17,-341.71 43.96,-64.59 115.66,-95.59 196.95,-118.81 7.29,-40.56 42.35,-47.54 55.8,-80.65 13.31,4.71 22.55,15.9 35.85,20.6 21.76,-11.68 -3.89,-31.31 24.99,-45.76 85.35,-29.7 174.1,13.12 235.11,22.36 120.91,138.71 155.99,348.32 168.69,576.45 -2.6,27.26 -32.95,20.94 -42.02,44.14 3.09,75.94 9.6,152.2 27.3,219.2 -32.13,48.52 -43.31,129.97 -56.92,200.88 -20.77,1.47 -23.04,25.32 -41.54,2.93zm-809.08 -458.55c-25.64,-19.63 -4.54,-24.5 -4.71,-58.9 41.53,-2.92 -6.33,30.35 4.71,58.9zm-15.87 166.96c-9.24,-11.19 -1.47,-20.76 -5.36,-52.08 38.14,-3.25 12.83,45.92 5.36,52.08zm5.69 48.67c-5.35,20.13 -17.68,5.2 -7.32,-31.63 9.42,-26.62 7.97,24.83 7.32,31.63zm-20.41 214.67c-26.28,-12.81 7.63,-43.97 5.51,-57.92 20.12,5.35 1.96,51.76 -5.51,57.92zm428.27 449.85c12.16,-19.47 46.24,-16.23 79.98,-9.57 -12.16,19.46 -45.91,12.81 -79.98,9.57zm1322.81 -1418.55c-44.46,-7.06 -75.22,-14.05 -106.05,-10.78 -62,78.41 -277.51,53.4 -233.75,204.22 64.96,14.01 68.65,-40.75 126.83,-37.03 36.64,202.13 -15.65,396.96 -2.79,564.74 -13.82,27.32 -61.69,16.81 -58.47,57.9 29.8,202.09 45.92,404.12 34.66,606 6.73,24 27.2,37.79 30.47,68.6 -20.64,20.44 -92.38,-7.29 -89.18,37.22 -13.84,30.74 16.96,30.89 37.45,41.26 51.24,20.78 95.73,21.01 147.14,7.57 78.81,-16.72 195.34,-46.97 195.62,-105.14 -41.07,-0.2 -78.71,-3.81 -106.15,9.75 0.12,-27.39 34.34,-23.8 48.11,-40.85 -99.17,-17.6 -60.92,-140.63 -77.72,-202.32 -3.34,-17.13 -13.7,-0.07 -27.38,-0.14 24.11,-30.68 34.61,-78.55 58.72,-109.24 1.38,-280.66 -11.21,-503.2 3.74,-759.83 51.74,-81.9 196.27,-238.64 246.89,-91.21 0.11,-20.52 20.64,-20.42 24.23,-54.63 -3.27,-30.83 -30.56,-51.5 -26.91,-95.98 13.63,13.76 51.31,7.11 78.69,7.24 -10.52,51.29 44.3,41.29 47.53,78.95 78.77,-9.88 85.32,51.77 174.31,52.2 13.9,-44.42 58.45,-54.47 68.93,-98.92 -30.55,-51.49 -64.54,-99.58 -105.42,-137.43 -123.17,-10.88 -246.36,-18.33 -321.94,39.49l-68.44 -0.34c-20.75,40.98 -51.74,78.47 -106.54,85.04 -6.59,-51.37 34.59,-71.69 7.42,-116.34zm-190.3 1111.48c-27.19,-37.79 -16.5,-126.72 0.72,-147.18 23.8,34.34 6.31,109.56 -0.72,147.18zm91.82 -574.58c-27.31,-13.82 -9.85,-85.62 0.57,-116.37 13.72,-6.78 -0.32,65.03 -0.57,116.37l0 0zm16.07 907.12c-3.33,-20.56 7,-30.78 27.53,-30.67 -10.31,10.22 -3.6,37.63 -27.53,30.67l0 0zm310.55 -1203.3c-0.03,6.85 -0.07,13.7 6.73,24l-6.73 -24zm676.41 -265.02c-55.59,-9.78 -101.9,-33.96 -149.71,-30.58 -13.65,0.97 -15.85,18.28 -29.27,22.66 -50.49,13.87 -122.91,8.7 -140.02,57.95 14.59,60.72 106.32,-0.67 135.34,21.3 -28.9,173.61 15.32,410.68 43.95,621.39 18.7,118.77 -19.41,210.68 22.23,314.1 19.48,32.94 -22.7,18.76 -13.69,49.02 27.75,52.93 61.62,95.14 60.83,180.99 41.18,48.55 66.5,115.38 107.2,157.1 75.62,-46.52 106.77,54.22 193.34,65.25 52.17,10.03 98.52,-13.83 174.12,-12.32 51.96,-41.42 148.32,-85.98 209.53,-93.74 39.05,-30.21 45.42,-85.57 110.05,-93.57 47.29,37.83 75.53,97.59 116.23,139.33 65.34,2.23 121.18,15.44 180.19,24.99 32.94,-19.49 65.87,-38.97 124.16,-39.67 27.1,-53.39 139.08,-119.63 71.58,-200.64 -62.66,-12.73 -72.24,94.33 -158.33,90.11 -12.69,14.63 -10.76,41.94 -38.07,43.88 -6.55,-44.15 -64.1,-33.22 -79.94,-62.97 -123.41,-337.84 -108.7,-808.96 -118.9,-1244.02 5.14,-24.38 50.74,-10.45 34.18,-50.45 -52.86,-68.33 -279.93,-28.24 -320.44,29.53 4.37,13.42 15.1,19.52 13.14,40.24 21.93,19.04 60.24,-21.41 79.97,14.93 71.43,379.26 70.52,657.25 92.7,1019.41 -110.56,134.78 -247.25,336.6 -508.63,279.61 -22.9,-32.71 -0.21,-51.46 -6.77,-95.61l-109.4 -139.81c3.46,-48.27 -14.52,-156.8 -32.28,-213.88 32.96,-67.53 -3.52,-195.33 -13.7,-290.69 -18.39,-211.43 25.91,-458.2 -49.59,-603.84zm1300.35 -950.75c-70.35,31.84 -70.64,-37.97 -133.67,-21.59 -35.37,49.14 -86.21,90.97 -139.72,136.83 -38.12,35.75 -117.85,72.99 -73.96,133.9 103.41,10.31 90.8,-119.87 192.09,-137.06 13.78,84.52 43.48,127.36 16.86,185.2 128.88,323 171.26,667.19 251.74,975.64 71.65,282.3 182.93,570.48 214.33,861 -38.95,-2.52 -108.76,-2.23 -109.9,43.42 20.26,30.8 50.44,24.63 90.83,51.31 93.68,-71.55 283.81,-30.03 346.42,-151.12 -18.29,-38.19 -81.24,-4.37 -112.18,-19 -4.61,-142.29 -64.81,-248.77 -96.18,-368.14 -15.68,-59.66 -21.31,-121.39 -36.99,-181.07 -16.37,-63.04 -52.86,-121.95 -69.24,-184.98 -14.38,-70.43 5.45,-144.34 -12.97,-217.44 -1.38,-6.7 -22.93,-26.76 -27.66,-32.77 -49.58,-140.09 -73.49,-240.01 -102.88,-366.77 -64.11,-245.41 -152.24,-454.48 -196.92,-707.36zm698.2 -115.14c-100.45,-53.43 -230.99,51.03 -291.37,114.32 -3.01,64.88 -0.86,135.4 43.17,190.55 177.06,60.22 328.59,-146.19 248.2,-304.87zm612.74 2017.82c-183.76,-499.37 -243.94,-976.75 -463.5,-1451.79 -23.98,3.22 -38.95,-24.56 -66.23,-20.41 -51.27,7.37 -76.42,82.05 -110.35,112.99 -28.29,25.77 -77.7,39.73 -94.66,55.19 -27.36,29.07 -23.28,81.27 -88.15,78.25 10.73,25.43 54.69,105.48 106.89,101.4 45.68,-27.13 95.25,-90.93 124.88,-99.3 31.56,136.9 85.26,264.01 121.2,353.44 -4.3,22.56 -39.1,25.28 -23.21,56.35 96.87,154.03 111.31,356.25 153.55,543.49 14.8,77.61 53.6,152.01 64.2,227.27 4.08,52.19 -23.34,106.18 10.37,150.01 -17.04,40.38 -83.85,55.69 -78.84,111.19 49.33,10.96 90.35,-32.64 135.54,-48.97 29.66,-8.37 64.88,3.02 91.22,-4.43 3.3,-0.93 53.78,-61.42 65.88,-18.62 39.67,-60.99 167.91,-22.53 149.38,-113.33 -22.48,-29.21 -80.42,4.94 -98.17,-32.73zm-476.69 -1284.45c-29.64,8.37 -42.6,-62.66 -37.87,-71.1 17.83,12.74 29.49,41.46 37.87,71.1zm207.41 1086.66c-18.83,8.87 -15.89,-31.08 -22.91,-43.32 30.15,-19.18 27.64,34.88 22.91,43.32zm455.62 -1835.42c-123.65,-10.21 -70.77,127.17 -147.85,165.71 -18.01,162.81 -28.4,326.52 -116.42,456.25 -38,-4.56 -161.41,-3.96 -141.53,61.64 71.12,-14.59 137.2,-12.82 184.68,28.32 51.55,-18.47 161.72,-127.04 225.6,-70.55 5.53,5.29 -2.02,55.25 9.54,87.48 25.65,81.71 61.45,140.98 85.7,208.64 24.26,67.67 25.34,172.12 63.21,267.62 7.84,11.73 26.5,23.22 35.5,38.18 93.72,180.32 144.96,444.95 219.72,552.08 44.74,63.95 112.46,90.58 136.48,147.43 32.22,-11.56 41.7,25.03 68.63,19.02 32.64,-40.79 95.08,-8.63 139.28,-17.2 87.42,-60.42 133.13,-145.91 211.8,-210.45 14.47,-30.64 1.52,-76.91 51,-91.02 -19.63,-54.77 23.17,-77.37 -4.06,-133.07 -34.78,-5.71 -69.55,-11.43 -107.3,-5.16 -25.66,111 -31.5,236.73 -175.33,291.91 -38.91,3.04 -55.99,-34.46 -81.34,-54.46 -30.88,-25.29 -21.46,-39.58 -38.55,-77.09 -6.93,-19.33 -29.96,-32.88 -38.96,-47.84 -103.16,-206.64 -168.94,-532.11 -269.78,-732.31 -8.09,-22.54 25.29,-30.88 8.44,-57.56 -9.65,3.47 -24.61,12.46 -29.24,-0.43 25.55,-20.06 40.99,-7.42 58.68,-39.21 -40.98,7.42 -47.18,20.55 -67.91,13.44 3.16,-52.04 -87.05,-212.41 -47.29,-273.93 58.9,-28.39 91.12,-39.95 154.66,-55.44 -40.12,-51.07 101.22,-72.65 98.84,-129.97 -63.83,-46.21 -204.86,37.08 -269.97,78.59 -36.84,-1.34 -57.81,-19.27 -84.08,-31.68 -46.19,-128.87 -75.38,-271.13 -132.15,-388.94zm897.74 -484.82c-123.83,7.63 -51.78,136 -122.54,185.21 5.55,163.7 18.75,327.21 -49.74,468.22 -38.26,0.94 -160.3,19.26 -131.22,81.31 68.29,-24.63 133.94,-32.37 186.84,1.54 48.36,-25.68 141.81,-148.94 213.13,-102.21 6.23,4.45 5.94,54.98 22,85.22 37.11,77.17 81.04,130.7 114.75,194.18 33.72,63.48 49.78,166.7 100.96,255.78 9.44,10.49 29.56,19.17 40.61,32.69 118.64,165 207.31,419.54 296.67,514.84 53.45,56.87 124.3,73.5 156.21,126.31 30.24,-16.05 44.88,18.8 70.66,8.98 26.45,-45.04 92.86,-22.18 135.37,-37 77.84,-72.35 110.82,-163.5 179.41,-238.67 9.91,-32.4 -9.53,-76.33 37.42,-97.39 -27.3,-51.39 11.82,-79.91 -23.12,-131.11 -35.24,-0.66 -70.48,-1.34 -106.94,10.29 -9.46,113.53 2.81,238.79 -131.62,314.05 -38.07,8.59 -60.35,-26.08 -88.31,-42.24 -34.19,-20.6 -26.92,-36.08 -49.21,-70.75 -9.64,-18.14 -34.37,-28.24 -45.43,-41.76 -131.73,-189.69 -243.54,-502.36 -372.07,-686.01 -11.24,-21.15 20.6,-34.19 0.11,-58.18 -9.07,4.81 -22.58,15.86 -29,3.77 22.39,-23.52 39.48,-13.23 52.43,-47.23 -39.49,13.23 -43.74,27.11 -65.28,23.05 -4.33,-51.95 -116.63,-197.72 -86.11,-264.31 54.22,-36.55 84.45,-52.6 145.1,-77.05 -47.03,-44.79 89.75,-86.43 79.18,-142.82 -69.8,-36.57 -197.43,66.09 -255.91,116.52 -36.65,3.96 -59.98,-10.77 -87.75,-19.28 -64.22,-120.91 -113.5,-257.51 -186.6,-365.95zm1389.18 -386.59c-129.7,36.92 -315.96,27.44 -456.1,126.62 -72.28,46.94 -114.73,113.59 -159.83,155.71 -60.32,157.37 -4.96,325.16 -28.93,483.4 44.34,101.18 96.17,227.36 141.85,340.82 46.11,108.64 90.41,156.37 199.63,265.83 48.68,52.99 107.48,128.75 155.71,159.82 34.63,20.13 85.47,22.28 135.01,38.89 279.68,105.37 463,255.53 762.97,0.65 110.79,-96.95 83.15,-140.75 168.94,-256.95 53.25,-240.64 85.03,-485.65 -104.96,-750.61 -27.2,-21.89 27.57,-36.4 12.66,-59.62 -85.53,-75.73 -134.69,-177.37 -206.19,-246.99 -181.14,-174.26 -413.9,-234.09 -620.76,-257.57zm-243.11 136.07c44.25,-5.75 102.95,-36.9 130.61,6.89 22.81,43.37 -17.49,59.18 42.59,93.75 22.8,16.64 7.42,-28.49 33.28,-18.87 219.19,75.62 513.77,177.46 662.56,441.17 35.56,63.95 104.39,109.02 142.57,170.78 12.73,20.59 10.56,44.68 20.24,72.29 32.05,75.79 77.24,140.6 63.29,214.68 -13.14,10.96 -25,-19.26 -38.57,-3.48 -28.01,41.22 -17.46,85.92 -33.2,125.81 11,39.87 31.55,0.41 46.05,28.45 -15.32,35.06 -10.88,93.79 -41.09,132.38 -8.31,11.4 -48.18,22.39 -64.82,45.19 -18.82,20.18 -21.43,49.1 -35,64.9 0.44,-4.83 -74.03,39.5 -59.12,35.98 -39.88,10.99 -92.93,-20.51 -161.32,-43.68 -54.36,-17.05 -124.92,-16.1 -165.24,-27.03 -47.34,-13.99 -101.72,-57.76 -155.21,-84.44 -170.54,-76.11 -281.9,-134.73 -417.9,-297.63 -19.31,-28.47 4.35,-48.22 -7.95,-73.62 -50.91,-82.35 -116.26,-139.27 -161.02,-208.9 -66.26,-100.74 -58.47,-214.25 -118.15,-307.11 21,-44.28 10.45,-88.97 26.62,-133.69 21.02,-17.54 40.75,6.1 63.54,-3.99 6.96,-50.41 47.68,-97.77 66.49,-144.68 0.86,-9.63 -3.09,-19.71 -11.87,-30.22 48.6,-53.95 115.66,-43.06 172.62,-54.93zm1141.43 790.45c-28.52,-34.16 -9.26,-59.15 -28.13,-92.44 38.11,-18.45 56.59,73.14 28.13,92.44zm-303.37 -625.09c-22.35,5.28 -42.52,-13.55 -59.64,-39.4 22.35,-5.27 39.9,15.74 59.64,39.4zm-439.25 -141.61c-25.84,17.11 -46.46,-23.63 -74.07,-13.95 -0.46,-21.92 56.52,-7.07 74.07,13.95zm-694.98 566.81c-27.6,9.67 -21.07,-35.92 -29.4,-51.25 29.78,-7.03 23.26,38.55 29.4,51.25z"/>
  <path class="fil0" d="M1251.37 11514.5c-22.68,85.98 -96.92,135.76 -112.58,217.4 -24.43,-23.8 -104.86,-34.36 -61.17,-76.93 -80.43,-10.57 -211.56,-122.03 -289.22,-52.63 18.13,19.9 42.1,30.36 69.22,42.77 55.36,-61.44 156.86,83.89 200.27,62.89 2.13,31.75 14.43,61.09 42.02,86.82 160.01,85.84 296.43,83.18 443.68,126.34 -24.53,32.66 -6.39,52.57 4.71,76.82 45.36,-24.14 99.41,-34.22 144.77,-58.37 151.41,15.3 284.06,-37.52 405.89,-136.17 -37.03,-31.56 -45.64,45.71 -82.66,14.15 212.25,-125.37 433.38,-201.78 630.02,-393.34 180.86,-53.46 300.49,-275.2 411.14,-489.45 34.43,-13.5 68.12,-18.77 101.82,-24.04 -38.51,-15.1 -38.51,-15.1 -72.38,-44.73 -16.01,11.86 8.88,48.97 -21.39,34.62 41.58,-74.31 27.71,-178.53 67.05,-228.14 23.25,18.7 -7.59,47.48 10.55,67.39 72.78,-181.12 -31.76,-384.86 -89.39,-537.87 -25.82,-63.77 -61.35,-111.82 -103.63,-177.08 -84.58,-130.52 -191.74,-231.52 -372.22,-256.09 -33.59,-51.18 -108.18,-71.19 -159.73,-107.39 -7.5,-8.98 -0.92,-26.66 -4.07,-28.6 -15.73,-9.72 -36.1,-4.91 -53.03,-19.72 -10.64,-10.93 -16.66,-36.38 -32.38,-46.1 -9.45,-5.83 -43.14,-0.57 -55.72,-8.34 -31.47,-19.45 -46.18,-58.97 -70.15,-69.43 -32.2,-11.21 -91.07,-21.49 -117.09,27.64 13.97,47.77 115.22,66.85 173.53,120.27 0.81,83.11 -65.19,133.64 -111.11,200.92 -77.03,117.62 -127.23,269.22 -199.17,385.64 -185.91,293.83 -414.95,587.1 -603.55,892.32 -76.57,130.95 -135.46,268.48 -204.99,395.08 -26.03,49.14 -72.59,68.2 -62.51,122.26 23.8,-24.43 42.04,-60.99 69.9,-56.83 -17.5,28.32 -40.09,57.85 -4.74,70.99 57.95,-16.36 50.83,-103.37 108.31,-133.07zm239.4 274.01c-37.76,-23.33 -40.62,-46.83 -81.81,-50.55 -40.27,22.95 -15.84,46.75 -41.11,87.65 -36.28,-39.81 -55.26,4.98 -91.54,-34.82 54.34,-31.65 96.19,-127.53 165.7,-106.32 4.74,-70.99 25.49,-153.82 72.61,-216.01 9.72,-15.73 35.17,-21.74 46.1,-32.39 98.42,-152.23 160.56,-344.27 322.37,-444.3 21.38,-34.6 -39.99,1.39 -22.49,-26.93 97.78,-200.46 252.66,-352.59 360.8,-520.57 128.78,-194.33 181.31,-427.11 361.64,-585.25 76.72,51.76 177.69,92.4 255.78,184.14 79.31,96.84 214.3,349.82 217.99,456.44 -2.98,32.95 -17.61,84.78 -31.22,106.81 -16.3,33.4 -50.45,25.35 -69.89,56.82 -16.76,20.08 -14.92,73.39 -29.27,103.65 -22.14,42.85 -59.71,54.41 -75.54,101.15 -22.6,29.52 10.82,45.82 10.53,67.39 -108.13,167.96 -248.66,289.83 -365.67,408.84 -30.84,28.78 -45.93,67.28 -69.72,91.7 -96.37,92.64 -287.52,204.97 -410.44,242.05 -29.35,12.31 -65.44,7.4 -95.98,14.61 -129.96,41.44 -276.68,102.96 -428.84,95.89zm819.7 -102.2c-52.39,28.5 -142.82,55.23 -154.6,130.57 42.04,-60.99 163.65,-46.71 154.6,-130.57zm-542.72 -1091.91c17.5,-28.32 11.48,-53.77 39.17,-84.49 14.53,4.63 18.87,11.66 13.04,21.1l-104.99 169.91c-27.97,52.3 -21.57,-0.27 2.23,-24.7l50.55 -81.82zm94.06 1297.3c1.02,-29.8 75.9,-31.37 107.93,-55.05 26.09,42.2 -79.8,37.65 -107.93,55.05zm-262.92 -658.13c-50.63,-9.55 -12.02,-50.91 8.34,-55.72 6.76,17.22 5.28,33.69 -8.34,55.72zm1253.14 -64.82c-9.62,-40.73 6.85,-39.25 29.44,-68.77 16.94,14.81 -24.07,46 -29.44,68.77zm-1610.99 700.25c-16.76,20.08 -18.25,36.54 -4.45,49.41 16.75,-20.08 18.23,-36.55 4.45,-49.41l0 0zm1162.09 -234.14c-4.17,27.86 -53.6,23.41 -33.05,53.49 6.57,-17.67 52.39,-28.49 33.05,-53.49l0 0zm-18.33 -1898.33c-8.52,20.82 -50.62,-9.55 -21.28,-21.85 14.53,4.63 11.85,16.02 21.28,21.85zm-688.28 1113.87l11.66 -18.88 18.89 11.67 -11.67 18.88 -18.88 -11.67z"/>
  <path class="fil1" d="M2836.08 12272.24l-69.27 -15.26 -19 -115.75 60.71 -36.47 147.43 -24.2c-3.42,-54.39 -1.5,-108.14 5.31,-160.65l-145.31 -33.93 -58.17 -40.6 26.74 -114.2 70.06 -10.47 145.37 34.06c17.56,-50.96 39.92,-99.93 66.62,-146.29l-121.41 -87.08 -38.19 -59.74 68.39 -95.29 68.72 17.14 121.42 87.18c35.4,-40.13 74.66,-76.95 117.32,-109.87l-78.75 -126.76 -12.43 -69.84 99.66 -61.85 56.94 42.14 78.72 126.84c47.58,-23.23 97.86,-42.22 150.52,-56.36l-24.27 -147.36 15.25 -69.26 115.75 -19 36.47 60.71 24.2 147.43c54.4,-3.44 108.14,-1.5 160.64,5.29l33.95 -145.3 40.6 -58.15 114.2 26.73 10.47 70.06 -34.05 145.37c50.95,17.56 99.92,39.92 146.28,66.61l87.08 -121.39 59.74 -38.2 95.28 68.41 -17.14 68.72 -87.16 121.41c40.1,35.4 76.93,74.63 109.85,117.31l126.77 -78.76 69.84 -12.42 61.85 99.65 -42.14 56.93 -126.86 78.72c23.23,47.6 42.25,97.89 56.38,150.54l147.35 -24.26 69.27 15.25 19 115.74 -60.72 36.48 -147.42 24.19c3.41,54.4 1.49,108.14 -5.31,160.66l145.31 33.96 58.16 40.57 -26.74 114.22 -70.05 10.46 -145.38 -34.07c-17.56,50.97 -39.92,99.93 -66.61,146.29l121.4 87.08 38.21 59.75 -68.41 95.29 -68.73 -17.16 -121.41 -87.17c-35.4,40.11 -74.65,76.95 -117.3,109.86l78.74 126.78 12.43 69.84 -99.66 61.84 -56.94 -42.16 -78.72 -126.83c-47.58,23.22 -97.87,42.23 -150.53,56.37l24.28 147.36 -15.25 69.26 -115.74 19 -36.48 -60.71 -24.2 -147.43c-54.41,3.44 -108.15,1.5 -160.66,-5.3l-33.94 145.29 -40.59 58.16 -114.2 -26.73 -10.47 -70.04 34.05 -145.39c-50.96,-17.55 -99.91,-39.91 -146.28,-66.62l-87.08 121.41 -59.75 38.2 -95.28 -68.4 17.13 -68.73 87.18 -121.42c-40.12,-35.39 -76.94,-74.62 -109.86,-117.31l-126.76 78.78 -69.83 12.4 -61.86 -99.66 42.15 -56.92 126.84 -78.72c-23.23,-47.58 -42.23,-97.88 -56.37,-150.53l-147.35 24.27zm293.3 -367.89l0 0c27.41,156.86 132.14,224.23 227.59,230.83 98.83,7.93 188.97,-40.36 272.57,-100.92 0,-27.97 7.1,-54.73 19.93,-78.26 -100.27,-61.11 -197.6,-139.17 -253.12,-244.79 -30.68,-65.68 -40.18,-143.19 -9.09,-224.01 -133.8,101.43 -226.82,250.22 -257.88,417.15zm601.95 -551.39l0 0c-157.23,73.41 -192.91,200.49 -168.64,297.44 22.99,96.44 96.77,167.25 180.22,228.06 7.75,-2.51 15.69,-4.65 23.96,-6.01 19.37,-3.18 38.43,-2.63 56.67,0.76 27.11,-114.24 71.21,-230.92 154.52,-316.38 54.56,-50.95 127.97,-84.45 217.99,-77.41 -130.34,-94.72 -294.13,-143.19 -464.72,-126.46zm-6.02 687.32l0 0c6.49,39.53 43.83,66.34 83.4,59.85 39.55,-6.5 66.36,-43.83 59.87,-83.37 -6.5,-39.56 -43.84,-66.37 -83.39,-59.88 -39.57,6.5 -66.38,43.83 -59.88,83.4zm741.54 -121.76l0 0c-8.86,-53.96 -24.01,-105.28 -44.32,-153.56 -118.47,-127.11 -250.46,-121.8 -335.22,-68.73 -84.61,51.65 -129.14,143.67 -161.19,241.81 14.58,20.04 24.95,43.61 29.24,69.74 0.29,1.78 0.37,3.55 0.6,5.34 117.05,-9.52 241.67,-3.59 348.69,49.24 62.93,34.83 115.85,91.33 138.53,173.9 32.04,-99.38 41.75,-207.6 23.67,-317.74zm-559.93 779.91l0 0c134.64,-22.11 253.37,-82.56 347.15,-168.15 70.33,-143.2 25.18,-259.44 -48.24,-320.94 -75.25,-64.48 -176.48,-78.42 -279.66,-78.57 -15.89,21.86 -37.19,39.74 -62.27,51.65 45.21,108.36 78.04,228.7 60.88,346.78 -12.97,66.9 -47.24,131.27 -111.67,177.91 31.02,-0.79 62.32,-3.52 93.81,-8.68zm-429.5 -71.06l0 0c150.07,16.47 242.26,-60.43 277.03,-146.75 38.08,-91.49 20.04,-192.12 -11.71,-290.33 -26.09,-8.49 -49.66,-23.33 -68.43,-43.12 -89.07,76.46 -193.34,144.84 -310.89,164.99 -67.91,8.38 -140,-4.44 -204.43,-51.73 58.14,160.49 173.6,289.53 318.43,366.94z"/>
  <path class="fil2" d="M1318.04 7112.75c936.19,503.32 2115.8,268.67 2936.23,-603.86 12.32,-13.1 -79.06,-532.55 199.21,-1039.77 -1859.07,-1060.21 -1064.71,-2789.51 -821.06,-3043.98 -599.84,40.32 -3076.99,2114.82 -2314.38,4687.61z"/>
  <path class="fil2" d="M5171.88 7550.39c-4.06,-5.98 21.62,4.95 23.98,2.55 5.09,-5.16 -7.11,-19.37 -17.45,-25.29 -122.37,-70.07 -353.97,-6.35 -861.4,-765.46 -967.67,789.69 -1694.9,969.25 -2896.52,684.86 272.56,1329.62 1559.73,2303.5 2286.55,2593.64 718.27,-362.69 1773.71,-2035.54 1464.84,-2490.3z"/>
  <path class="fil2" d="M5176.14 7526.04c-0.12,-0.02 -81.44,494.99 -270.94,1039.62 -213.51,613.66 -904.41,1155.64 -1198.16,1475.03 164.83,97.15 532.26,165.28 758.91,187.29 504.86,126.71 2280.8,110.41 2651.21,-443.54 257.09,-384.47 761.96,-1105.7 -151.67,-2146.35 -173.98,-198.16 -526.39,-335.26 -604.87,-392.12 -2.81,-1.13 -368.78,478.79 -1184.48,280.07z"/>
  <path class="fil2" d="M7194.98 5559.16c-312.18,24.23 -572.99,221.07 -787.54,420.2 190.79,257.3 235.89,740.05 78.89,1004.94 -200.09,337.56 789.43,142.04 1165.04,1519.72 128.18,-90.91 397.7,-2053.82 -258.14,-2881.7 -50.55,-63.82 -120.36,-81.41 -198.25,-63.16z"/>
  <path class="fil2" d="M5481.59 7397.8c37.72,-30.01 695.62,3.52 876.29,-584.87 232.65,-757.69 -626.32,-1319.09 -1104.35,-631.91 -84.57,222.03 -70.98,542.66 156.98,658.19 227.79,115.43 374.26,89.65 553.19,-97.47 90.24,-205.84 -62.04,-389.1 -274.43,-284.78 -317.68,145.91 -280.37,-437.49 200.46,-294.69 322.96,107.9 416,978.73 -393.05,937.72 -314.67,-15.98 -578.16,-573.2 -377.34,-1009.22 116.16,-252.22 122.82,-217.88 129.7,-265.56 8.11,-56.18 -180.55,-273.59 4.05,-911.72 -521.67,312.64 -836.09,742.19 -819.47,1382.69 15.77,607.44 532.88,1006.08 1047.97,1101.62z"/>
  <path class="fil2" d="M5450.76 4901.5c-104.32,134.59 -144.84,615.04 -95.94,790.35 71.92,257.86 495.93,-188.74 969.87,206.29 150.82,-193.67 308.15,-448.96 886.37,-444.11 99.57,-330.37 -1398.45,-921.79 -1760.3,-552.53z"/>
  <path class="fil3" d="M3676.98 6168.77c-0.96,0.33 -112.3,-8.44 -107.6,145.76 0,0.35 8.18,50.6 8.25,50.74 26.42,67.35 93.11,72.48 149.52,53.23 119.87,-40.91 155.6,-322 -50.17,-249.73z"/>
  <path class="fil4 str1" d="M3699.47 6135.9c88.4,0 160.07,72.85 160.07,162.72 0,89.87 -71.67,162.72 -160.07,162.72 -88.4,0 -160.07,-72.85 -160.07,-162.72 0,-89.87 71.67,-162.72 160.07,-162.72z"/>
  <path class="fil4 str1" d="M2985.09 6572.47c88.4,0 160.07,72.85 160.07,162.72 0,89.87 -71.67,162.72 -160.07,162.72 -88.4,0 -160.07,-72.85 -160.07,-162.72 0,-89.87 71.67,-162.72 160.07,-162.72z"/>
  <path class="fil4 str1" d="M2056.4 6733.86c88.4,0 160.07,72.85 160.07,162.72 0,89.87 -71.67,162.72 -160.07,162.72 -88.4,0 -160.07,-72.85 -160.07,-162.72 0,-89.87 71.67,-162.72 160.07,-162.72z"/>
  <path class="fil2" d="M3912.61 2259.73c-577.2,1175.31 -479.52,2421.24 638.04,3036.89 322.05,-452.72 844.9,-707.25 1558.42,-740.66 326.57,-997.6 976.02,-1756.55 2073.87,-2054.79 -1819.32,-1028.98 -3728.35,-495.48 -4270.33,-241.44z"/>
  <path class="fil2" d="M10292.36 1590.58c610.87,556.58 600.88,1141.27 802.68,1310.95 -149.4,44.29 -448.84,501.73 -492.19,758.62 194.34,23.48 319.05,57.15 506.12,50.28 99.07,124.38 9.93,121.11 241.07,360.78 182.44,189.18 580.08,224.77 715.17,387.91 709.12,846.66 134.63,1869.62 -379.18,2210.98 -74.39,-657.62 -186.97,-2048.9 -1187.36,-1596.85 -1571.58,733.92 -202.26,2243.48 -2335.65,3248.63 -272.11,941.9 -826.41,1553.82 -1122.14,1731.89 19.55,152.88 477.9,89.12 678.78,129.99 6843.34,280.29 6399.19,-5121.1 5240.01,-6198.48 -66.04,59.62 -50.39,12.66 -84.61,46.96 1716.92,3288.87 -1226.9,5911.83 -4546.17,5910.19 1146.99,-502.36 1918.37,-1539.5 2131.44,-2623.52 1501.44,-40.79 2461.18,-1159.32 1980.04,-2596.15 -192.38,-574.52 -838.76,-467.97 -1042.14,-1031.19 536.02,19.05 1128.76,-217.79 1445.37,-437.77 152.27,504.95 142.3,-8.74 157.75,-35.6 188.22,-327.12 1187.59,-875.78 -222.67,-876.81 -138.56,422.18 -1007.22,921.29 -1726.95,530.19 163.6,91.97 1263.17,261.51 1689.89,-581.62 -117.11,-263.81 -315.49,-710.26 -320.65,-1223.8 -490.56,499.97 -1667.3,579.22 -1807.72,513.64 3364.48,-321.98 1207.63,-1907.57 -109.01,-501.89 -209.14,183.35 -281.74,225.02 -174.04,364.81 -15.61,76.9 83,47.2 156.59,151.17 -227.11,-46.59 -169.68,-38.02 -194.43,-3.31z"/>
  <path class="fil2" d="M6293.08 4606.43c1754.81,249 2061.35,2057.25 1897.7,3496.05 1896.02,-954.08 591.23,-2184.8 2216.25,-3116.23 -1606.66,-293.15 -728.71,-1555.72 -1916.86,-2282.77 -16.89,-10.34 -34.75,-32.85 -54.35,-26.67 -1368.09,431.68 -1872.48,1102.34 -2142.74,1929.62z"/>
  <path class="fil4 str1" d="M6878.09 4011.97c88.4,0 160.07,72.85 160.07,162.72 0,89.87 -71.67,162.72 -160.07,162.72 -88.4,0 -160.07,-72.85 -160.07,-162.72 0,-89.87 71.67,-162.72 160.07,-162.72z"/>
  <path class="fil4 str1" d="M7513.51 3302.96c74.26,0 134.47,61.19 134.47,136.69 0,75.49 -60.21,136.69 -134.47,136.69 -74.25,0 -134.46,-61.2 -134.46,-136.69 0,-75.5 60.21,-136.69 134.46,-136.69z"/>
  <path class="fil4 str1" d="M8264.93 2893.46c60.99,0 110.44,50.26 110.44,112.27 0,62.01 -49.45,112.28 -110.44,112.28 -61,0 -110.45,-50.27 -110.45,-112.28 0,-62.01 49.45,-112.27 110.45,-112.27z"/>
  <path class="fil4 str1" d="M4411.07 4424.24c88.4,0 160.07,72.85 160.07,162.72 0,89.87 -71.67,162.72 -160.07,162.72 -88.4,0 -160.07,-72.85 -160.07,-162.72 0,-89.87 71.67,-162.72 160.07,-162.72z"/>
  <path class="fil4 str1" d="M4072.4 3641.08c88.4,0 160.07,72.85 160.07,162.72 0,89.87 -71.67,162.72 -160.07,162.72 -88.4,0 -160.07,-72.85 -160.07,-162.72 0,-89.87 71.67,-162.72 160.07,-162.72z"/>
  <path class="fil4 str1" d="M4008.9 2688.58c88.4,0 160.07,72.85 160.07,162.72 0,89.87 -71.67,162.72 -160.07,162.72 -88.4,0 -160.07,-72.85 -160.07,-162.72 0,-89.87 71.67,-162.72 160.07,-162.72z"/>
  <path class="fil3" d="M10766.08 5783.86c-127.6,386.11 -176.46,1067.05 -169,1205.39 215.79,52.93 614.22,21.02 764.98,-115.44 135.36,-122.51 39.56,-1324.12 -247.28,-1455.69 -123.99,-56.88 -266.89,187.96 -348.7,365.74z"/>
  <path class="fil2" d="M11856.15 4090.17c16.1,52.61 88.83,65.04 149.13,92.07 360.93,161.82 343.7,-327.58 390.65,-539.68 -243.93,737.72 -445.38,295.95 -539.78,447.61z"/>
  <path class="fil2 str2" d="M13197.31 4762.13c-81.14,-231.75 -164.79,-492.08 -335.78,-672.42 -50.3,-34.07 -52.19,-100.34 -46.23,-148.5 33.93,-273.94 129.55,-518.28 9.19,-740.5l158.75 -63.5c60.92,294.43 46.16,500.58 13.48,813.68 275.58,346.23 296.67,532.75 366.53,688.27l-165.94 122.97z"/>
  <path class="fil2 str3" d="M10315.16 1607.22c42.82,-60.04 50.23,-17.4 194.43,3.31 5.96,0.86 408.45,-1325.54 1834.25,-572.72 106.7,-72.83 119.56,-297.54 41.54,-376.07 -86.2,-86.73 -198.01,-124.01 -362.09,-135 -567.1,-95.49 -1591.53,257.32 -1741.81,698.16 -39.5,115.94 -64.65,302.19 33.68,382.32z"/>
  <path class="fil4 str1" d="M10606.02 1112.56c245.98,-180.39 344.49,-201.45 151.9,-56.83 -321.02,241.06 -310.58,548.36 202.52,503.64 318.29,-27.74 34.63,53.54 -241.69,24.87 -350.33,-36.35 -345.38,-301.07 -112.73,-471.68z"/>
 </g>
</svg>
